<svg width="20" height="21" viewBox="0 0 20 21" fill="none" xmlns="http://www.w3.org/2000/svg">
<path fill-rule="evenodd" clip-rule="evenodd" d="M12.5 1.30566H9.12C7.58833 1.30566 6.375 1.30566 5.42583 1.43316C4.44917 1.56483 3.65833 1.8415 3.03417 2.46483C2.41083 3.089 2.13417 3.87983 2.0025 4.8565C1.875 5.8065 1.875 7.019 1.875 8.55066V13.5973C1.87502 14.3418 2.14078 15.0619 2.62445 15.6279C3.10812 16.1939 3.77793 16.5687 4.51333 16.6848C4.6275 17.3215 4.84833 17.8648 5.29 18.3073C5.79167 18.809 6.42333 19.024 7.17333 19.1257C7.89583 19.2223 8.815 19.2223 9.95417 19.2223H12.5458C13.685 19.2223 14.6042 19.2223 15.3267 19.1257C16.0767 19.024 16.7083 18.809 17.21 18.3073C17.7117 17.8057 17.9267 17.174 18.0283 16.424C18.125 15.7015 18.125 14.7823 18.125 13.6432V9.38483C18.125 8.24566 18.125 7.3265 18.0283 6.604C17.9267 5.854 17.7117 5.22233 17.21 4.72066C16.7675 4.279 16.2242 4.05816 15.5875 3.944C15.4714 3.20859 15.0966 2.53878 14.5306 2.05511C13.9646 1.57144 13.2445 1.30568 12.5 1.30566ZM14.275 3.82316C14.1483 3.45316 13.909 3.13205 13.5908 2.90477C13.2725 2.67749 12.8911 2.55543 12.5 2.55566H9.16667C7.5775 2.55566 6.44917 2.55733 5.59167 2.67233C4.75417 2.78483 4.27083 2.9965 3.91833 3.349C3.56583 3.7015 3.35417 4.18483 3.24167 5.02316C3.12667 5.87983 3.125 7.00816 3.125 8.59733V13.5973C3.12476 13.9884 3.24683 14.3698 3.4741 14.6881C3.70138 15.0064 4.0225 15.2456 4.3925 15.3723C4.375 14.864 4.375 14.289 4.375 13.6432V9.38483C4.375 8.24566 4.375 7.3265 4.4725 6.604C4.5725 5.854 4.78917 5.22233 5.29 4.72066C5.79167 4.219 6.42333 4.004 7.17333 3.90316C7.89583 3.80566 8.815 3.80566 9.95417 3.80566H12.5458C13.1917 3.80566 13.7667 3.80566 14.275 3.82316ZM6.17333 5.60566C6.40417 5.37483 6.7275 5.22483 7.34 5.14233C7.96833 5.05816 8.80333 5.0565 9.99917 5.0565H12.4992C13.695 5.0565 14.5292 5.05816 15.1592 5.14233C15.7708 5.22483 16.0942 5.37566 16.325 5.60566C16.5558 5.8365 16.7058 6.15983 16.7883 6.77233C16.8725 7.40066 16.8742 8.23566 16.8742 9.4315V13.5982C16.8742 14.794 16.8725 15.6282 16.7883 16.2582C16.7058 16.8698 16.555 17.1932 16.325 17.424C16.0942 17.6548 15.7708 17.8048 15.1583 17.8873C14.5292 17.9715 13.695 17.9732 12.4992 17.9732H9.99917C8.80333 17.9732 7.96833 17.9715 7.33917 17.8873C6.7275 17.8048 6.40417 17.654 6.17333 17.424C5.9425 17.1932 5.7925 16.8698 5.71 16.2573C5.62583 15.6282 5.62417 14.794 5.62417 13.5982V9.4315C5.62417 8.23566 5.62583 7.40066 5.71 6.7715C5.7925 6.15983 5.94333 5.8365 6.17333 5.60566Z" fill="#2F313C"/>
</svg>
