<svg width="36" height="36" viewBox="0 0 36 36" fill="none" xmlns="http://www.w3.org/2000/svg">
<g clip-path="url(#clip0_653_5510)">
<path d="M33.8701 8.31997L28.0001 2.41997C27.6122 2.03404 27.0872 1.81738 26.5401 1.81738C25.9929 1.81738 25.468 2.03404 25.0801 2.41997L4.27006 23.2L2.37006 31.4C2.30451 31.6997 2.30676 32.0103 2.37663 32.3091C2.44651 32.6079 2.58224 32.8873 2.77392 33.1269C2.9656 33.3665 3.20838 33.5602 3.48453 33.694C3.76068 33.8277 4.06323 33.8981 4.37006 33.9C4.51303 33.9144 4.65709 33.9144 4.80006 33.9L13.0901 32L33.8701 11.24C34.256 10.8521 34.4726 10.3272 34.4726 9.77997C34.4726 9.23279 34.256 8.70787 33.8701 8.31997ZM12.0901 30.2L4.32006 31.83L6.09006 24.21L21.6601 8.69997L27.6601 14.7L12.0901 30.2ZM29.0001 13.25L23.0001 7.24997L26.4801 3.78997L32.3801 9.78997L29.0001 13.25Z" fill="#2F313C"/>
</g>
<defs>
<clipPath id="clip0_653_5510">
<rect width="36" height="36" fill="white"/>
</clipPath>
</defs>
</svg>
