<svg width="66" height="70" viewBox="0 0 66 70" fill="none" xmlns="http://www.w3.org/2000/svg">
<g clip-path="url(#clip0_653_5866)">
<path d="M41.8694 48.6587C41.8184 47.9596 41.7844 47.2594 41.7673 46.5587C49.2019 45.7974 54.4198 44.0153 54.4198 41.9357C54.3994 41.9357 54.4023 41.8482 54.4023 41.8162C48.8432 36.8053 59.2207 1.21619 39.9036 1.93369C38.0638 0.553048 35.7952 -0.132902 33.4986 -0.00297503H33.5219C7.35651 1.97452 18.9269 35.5891 12.9623 41.9328H12.9507C12.974 43.9687 18.014 45.7187 25.2328 46.5003C25.2123 46.9962 25.1686 47.6116 25.0753 48.6412C22.0798 56.7203 1.85277 54.457 0.919434 69.9999H65.9436C65.0132 54.4541 44.8678 56.7174 41.8694 48.6587Z" fill="#D5D7DF"/>
</g>
<defs>
<clipPath id="clip0_653_5866">
<rect width="64.19" height="70" fill="white" transform="translate(0.904785)"/>
</clipPath>
</defs>
</svg>
