<svg width="25" height="24" viewBox="0 0 25 24" fill="none" xmlns="http://www.w3.org/2000/svg">
<path d="M20.9578 4.59133C20.4691 4.08683 19.8889 3.68663 19.2503 3.41358C18.6117 3.14054 17.9272 3 17.2359 3C16.5446 3 15.8601 3.14054 15.2215 3.41358C14.5829 3.68663 14.0026 4.08683 13.5139 4.59133L12.4997 5.63785L11.4855 4.59133C10.4984 3.57276 9.1596 3.00053 7.76361 3.00053C6.36761 3.00053 5.02879 3.57276 4.04168 4.59133C3.05456 5.6099 2.5 6.99139 2.5 8.43187C2.5 9.87235 3.05456 11.2538 4.04168 12.2724L12.4997 21L20.9578 12.2724C21.4467 11.7681 21.8346 11.1694 22.0992 10.5105C22.3638 9.85148 22.5 9.14517 22.5 8.43187C22.5 7.71857 22.3638 7.01225 22.0992 6.35328C21.8346 5.69431 21.4467 5.09559 20.9578 4.59133Z" stroke="#2F313C" stroke-width="1.5" stroke-linecap="round" stroke-linejoin="round"/>
</svg>
