<svg width="25" height="24" viewBox="0 0 25 24" fill="none" xmlns="http://www.w3.org/2000/svg">
<path fill-rule="evenodd" clip-rule="evenodd" d="M7.59902 1.25H17.4C18.417 1.25 19.117 1.25 19.706 1.454C20.2565 1.64841 20.7548 1.96717 21.162 2.38551C21.5692 2.80384 21.8745 3.31047 22.054 3.866C22.25 4.463 22.249 5.173 22.249 6.226V20.374C22.249 21.84 20.522 22.712 19.385 21.671C19.3485 21.6361 19.3 21.6166 19.2495 21.6166C19.199 21.6166 19.1505 21.6361 19.114 21.671L18.63 22.113C17.702 22.963 16.296 22.963 15.368 22.113C15.2001 21.9562 14.9788 21.8689 14.749 21.8689C14.5192 21.8689 14.298 21.9562 14.13 22.113C13.202 22.963 11.796 22.963 10.868 22.113C10.7001 21.9562 10.4788 21.8689 10.249 21.8689C10.0192 21.8689 9.79799 21.9562 9.63002 22.113C8.70202 22.963 7.29602 22.963 6.36802 22.113L5.88502 21.671C5.8485 21.6358 5.79975 21.6161 5.74902 21.6161C5.6983 21.6161 5.64955 21.6358 5.61302 21.671C4.47602 22.711 2.74902 21.84 2.74902 20.374V6.227C2.74902 5.173 2.74902 4.463 2.94402 3.866C3.12349 3.31044 3.42872 2.80377 3.83597 2.38543C4.24321 1.96708 4.74149 1.64834 5.29202 1.454C5.88202 1.249 6.58202 1.25 7.59902 1.25ZM7.74402 2.75C6.52302 2.75 6.10202 2.76 5.78402 2.871C5.45176 2.9898 5.15135 3.18359 4.90612 3.43732C4.66089 3.69105 4.47744 3.99788 4.37002 4.334C4.25902 4.672 4.25002 5.118 4.25002 6.37V20.374C4.25002 20.494 4.30902 20.566 4.38402 20.601C4.41824 20.6173 4.45639 20.6235 4.49402 20.619C4.53462 20.6125 4.57209 20.5932 4.60102 20.564C4.91394 20.2759 5.32371 20.116 5.74902 20.116C6.17434 20.116 6.58411 20.2759 6.89702 20.564L7.38002 21.006C7.54799 21.1628 7.76922 21.2501 7.99902 21.2501C8.22882 21.2501 8.45006 21.1628 8.61802 21.006C9.06247 20.5965 9.64469 20.3692 10.249 20.3692C10.8534 20.3692 11.4356 20.5965 11.88 21.006C12.048 21.1628 12.2692 21.2501 12.499 21.2501C12.7288 21.2501 12.9501 21.1628 13.118 21.006C13.5625 20.5965 14.1447 20.3692 14.749 20.3692C15.3534 20.3692 15.9356 20.5965 16.38 21.006C16.548 21.1628 16.7692 21.2501 16.999 21.2501C17.2288 21.2501 17.4501 21.1628 17.618 21.006L18.101 20.564C18.4139 20.2759 18.8237 20.116 19.249 20.116C19.6743 20.116 20.0841 20.2759 20.397 20.564C20.44 20.604 20.477 20.616 20.505 20.619C20.5423 20.6234 20.5801 20.6171 20.614 20.601C20.689 20.566 20.749 20.493 20.749 20.374V6.37C20.749 5.118 20.739 4.672 20.629 4.333C20.5213 3.99686 20.3375 3.69009 20.0919 3.43653C19.8463 3.18297 19.5455 2.98944 19.213 2.871C18.896 2.761 18.475 2.751 17.254 2.751L7.74402 2.75ZM6.75002 7.5C6.75002 7.30109 6.82904 7.11032 6.96969 6.96967C7.11035 6.82902 7.30111 6.75 7.50002 6.75H8.00002C8.19894 6.75 8.3897 6.82902 8.53035 6.96967C8.67101 7.11032 8.75002 7.30109 8.75002 7.5C8.75002 7.69891 8.67101 7.88968 8.53035 8.03033C8.3897 8.17098 8.19894 8.25 8.00002 8.25H7.50002C7.30111 8.25 7.11035 8.17098 6.96969 8.03033C6.82904 7.88968 6.75002 7.69891 6.75002 7.5ZM10.25 7.5C10.25 7.30109 10.329 7.11032 10.4697 6.96967C10.6103 6.82902 10.8011 6.75 11 6.75H17.5C17.6989 6.75 17.8897 6.82902 18.0304 6.96967C18.171 7.11032 18.25 7.30109 18.25 7.5C18.25 7.69891 18.171 7.88968 18.0304 8.03033C17.8897 8.17098 17.6989 8.25 17.5 8.25H11C10.8011 8.25 10.6103 8.17098 10.4697 8.03033C10.329 7.88968 10.25 7.69891 10.25 7.5ZM6.75002 11C6.75002 10.8011 6.82904 10.6103 6.96969 10.4697C7.11035 10.329 7.30111 10.25 7.50002 10.25H8.00002C8.19894 10.25 8.3897 10.329 8.53035 10.4697C8.67101 10.6103 8.75002 10.8011 8.75002 11C8.75002 11.1989 8.67101 11.3897 8.53035 11.5303C8.3897 11.671 8.19894 11.75 8.00002 11.75H7.50002C7.30111 11.75 7.11035 11.671 6.96969 11.5303C6.82904 11.3897 6.75002 11.1989 6.75002 11ZM10.25 11C10.25 10.8011 10.329 10.6103 10.4697 10.4697C10.6103 10.329 10.8011 10.25 11 10.25H17.5C17.6989 10.25 17.8897 10.329 18.0304 10.4697C18.171 10.6103 18.25 10.8011 18.25 11C18.25 11.1989 18.171 11.3897 18.0304 11.5303C17.8897 11.671 17.6989 11.75 17.5 11.75H11C10.8011 11.75 10.6103 11.671 10.4697 11.5303C10.329 11.3897 10.25 11.1989 10.25 11ZM6.75002 14.5C6.75002 14.3011 6.82904 14.1103 6.96969 13.9697C7.11035 13.829 7.30111 13.75 7.50002 13.75H8.00002C8.19894 13.75 8.3897 13.829 8.53035 13.9697C8.67101 14.1103 8.75002 14.3011 8.75002 14.5C8.75002 14.6989 8.67101 14.8897 8.53035 15.0303C8.3897 15.171 8.19894 15.25 8.00002 15.25H7.50002C7.30111 15.25 7.11035 15.171 6.96969 15.0303C6.82904 14.8897 6.75002 14.6989 6.75002 14.5ZM10.25 14.5C10.25 14.3011 10.329 14.1103 10.4697 13.9697C10.6103 13.829 10.8011 13.75 11 13.75H17.5C17.6989 13.75 17.8897 13.829 18.0304 13.9697C18.171 14.1103 18.25 14.3011 18.25 14.5C18.25 14.6989 18.171 14.8897 18.0304 15.0303C17.8897 15.171 17.6989 15.25 17.5 15.25H11C10.8011 15.25 10.6103 15.171 10.4697 15.0303C10.329 14.8897 10.25 14.6989 10.25 14.5Z" fill="#2F313C"/>
</svg>
