<svg width="24" height="24" viewBox="0 0 24 24" fill="none" xmlns="http://www.w3.org/2000/svg">
<path d="M12 9.75C12.1989 9.75 12.3897 9.82902 12.5303 9.96967C12.671 10.1103 12.75 10.3011 12.75 10.5V17.25C12.75 17.4489 12.671 17.6397 12.5303 17.7803C12.3897 17.921 12.1989 18 12 18C11.8011 18 11.6103 17.921 11.4697 17.7803C11.329 17.6397 11.25 17.4489 11.25 17.25V10.5C11.25 10.3011 11.329 10.1103 11.4697 9.96967C11.6103 9.82902 11.8011 9.75 12 9.75ZM12 8.25C12.2984 8.25 12.5845 8.13147 12.7955 7.9205C13.0065 7.70952 13.125 7.42337 13.125 7.125C13.125 6.82663 13.0065 6.54048 12.7955 6.3295C12.5845 6.11853 12.2984 6 12 6C11.7016 6 11.4155 6.11853 11.2045 6.3295C10.9935 6.54048 10.875 6.82663 10.875 7.125C10.875 7.42337 10.9935 7.70952 11.2045 7.9205C11.4155 8.13147 11.7016 8.25 12 8.25ZM1.5 12C1.5 6.201 6.201 1.5 12 1.5C17.799 1.5 22.5 6.201 22.5 12C22.5 17.799 17.799 22.5 12 22.5C6.201 22.5 1.5 17.799 1.5 12ZM12 3C7.02975 3 3 7.02975 3 12C3 16.9703 7.02975 21 12 21C16.9703 21 21 16.9703 21 12C21 7.02975 16.9703 3 12 3Z" fill="#2F313C"/>
</svg>
