<svg width="30" height="31" viewBox="0 0 30 31" fill="none" xmlns="http://www.w3.org/2000/svg">
<path d="M14.8182 3.5C17.4221 3.5 19.9194 4.54065 21.7607 6.39301C23.602 8.24537 24.6364 10.7577 24.6364 13.3774C24.6364 17.5512 21.7211 22.0998 15.9662 27.0719C15.6462 27.3485 15.2382 27.5004 14.8163 27.5C14.3944 27.4996 13.9867 27.347 13.6672 27.0699L13.2865 26.7376C7.78635 21.8952 5 17.458 5 13.3774C5 10.7577 6.03441 8.24537 7.87568 6.39301C9.71695 4.54065 12.2142 3.5 14.8182 3.5ZM14.8182 5.01959C12.6148 5.01959 10.5018 5.90014 8.94376 7.46753C7.38576 9.03491 6.51049 11.1607 6.51049 13.3774C6.51049 16.9251 9.07631 21.0128 14.2784 25.5918L14.654 25.9191C14.6997 25.9586 14.7579 25.9803 14.8182 25.9803C14.8784 25.9803 14.9367 25.9586 14.9823 25.9191C20.4362 21.2063 23.1259 17.0092 23.1259 13.3774C23.1259 12.2798 22.911 11.193 22.4935 10.179C22.076 9.16497 21.464 8.24362 20.6926 7.46753C19.9212 6.69144 19.0053 6.07581 17.9974 5.65579C16.9895 5.23577 15.9092 5.01959 14.8182 5.01959ZM14.8182 9.57837C15.8197 9.57837 16.7802 9.97862 17.4884 10.6911C18.1966 11.4035 18.5944 12.3698 18.5944 13.3774C18.5944 14.3849 18.1966 15.3512 17.4884 16.0636C16.7802 16.7761 15.8197 17.1763 14.8182 17.1763C13.8167 17.1763 12.8562 16.7761 12.148 16.0636C11.4398 15.3512 11.042 14.3849 11.042 13.3774C11.042 12.3698 11.4398 11.4035 12.148 10.6911C12.8562 9.97862 13.8167 9.57837 14.8182 9.57837ZM14.8182 11.098C14.2173 11.098 13.641 11.3381 13.2161 11.7656C12.7912 12.1931 12.5524 12.7728 12.5524 13.3774C12.5524 13.9819 12.7912 14.5617 13.2161 14.9891C13.641 15.4166 14.2173 15.6567 14.8182 15.6567C15.4191 15.6567 15.9954 15.4166 16.4203 14.9891C16.8452 14.5617 17.0839 13.9819 17.0839 13.3774C17.0839 12.7728 16.8452 12.1931 16.4203 11.7656C15.9954 11.3381 15.4191 11.098 14.8182 11.098Z" fill="#2F313C"/>
</svg>
