<svg width="30" height="31" viewBox="0 0 30 31" fill="none" xmlns="http://www.w3.org/2000/svg">
<path d="M7.5 11.75V9.5625C7.5 5.30625 10.6287 1.75 15 1.75C19.3713 1.75 22.5 5.30625 22.5 9.5625V11.75H23.125C23.9538 11.75 24.7487 12.0792 25.3347 12.6653C25.9208 13.2513 26.25 14.0462 26.25 14.875V24.875C26.25 25.7038 25.9208 26.4987 25.3347 27.0847C24.7487 27.6708 23.9538 28 23.125 28H6.875C6.0462 28 5.25134 27.6708 4.66529 27.0847C4.07924 26.4987 3.75 25.7038 3.75 24.875V14.875C3.75 14.0462 4.07924 13.2513 4.66529 12.6653C5.25134 12.0792 6.0462 11.75 6.875 11.75H7.5ZM5.625 14.875V24.875C5.625 25.2065 5.7567 25.5245 5.99112 25.7589C6.22554 25.9933 6.54348 26.125 6.875 26.125H23.125C23.4565 26.125 23.7745 25.9933 24.0089 25.7589C24.2433 25.5245 24.375 25.2065 24.375 24.875V14.875C24.375 14.5435 24.2433 14.2255 24.0089 13.9911C23.7745 13.7567 23.4565 13.625 23.125 13.625H6.875C6.54348 13.625 6.22554 13.7567 5.99112 13.9911C5.7567 14.2255 5.625 14.5435 5.625 14.875ZM9.375 9.5625V11.75H20.625V9.5625C20.625 6.225 18.2225 3.625 15 3.625C11.7775 3.625 9.375 6.225 9.375 9.5625Z" fill="#2F313C"/>
</svg>
