<svg width="65" height="70" viewBox="0 0 65 70" fill="none" xmlns="http://www.w3.org/2000/svg">
<g clip-path="url(#clip0_653_5862)">
<path d="M41.6728 48.5013C41.4923 46.0508 41.4417 43.5925 41.5211 41.1367L41.5182 41.2446C43.713 38.9694 45.0818 36.0242 45.4061 32.8796L45.4119 32.8183C46.4007 32.7367 47.9611 31.7742 48.4161 27.9592C48.5534 27.3021 48.5016 26.6196 48.2667 25.9908C48.0318 25.362 47.6235 24.8127 47.089 24.4067L47.0802 24.4008C48.6903 19.5592 52.0328 4.57917 40.894 3.03333C39.7478 1.02083 36.8136 0 32.9986 0C17.7357 0.28 15.8953 11.5238 19.2319 24.4008C18.6932 24.8106 18.2822 25.3654 18.0472 26.0002C17.8122 26.635 17.7628 27.3236 17.9048 27.9854L17.9019 27.9621C18.3686 31.7712 19.9173 32.7396 20.9061 32.8213C21.2529 36.0009 22.6653 38.9696 24.9136 41.2446C24.9875 43.7435 24.9311 46.2445 24.7444 48.7375L24.759 48.5013C21.7315 56.6213 1.34984 54.3404 0.416504 70H65.919C64.9798 54.3404 44.6915 56.6213 41.6698 48.5013H41.6728Z" fill="#D5D7DF"/>
</g>
<defs>
<clipPath id="clip0_653_5862">
<rect width="64.19" height="70" fill="white" transform="translate(0.404785)"/>
</clipPath>
</defs>
</svg>
