<svg width="30" height="30" viewBox="0 0 30 30" fill="none" xmlns="http://www.w3.org/2000/svg">
<path fill-rule="evenodd" clip-rule="evenodd" d="M9.13383 1.5625C8.13258 1.5625 7.44633 1.5625 6.83383 1.72875C6.19992 1.90273 5.60968 2.20809 5.10146 2.62501C4.59323 3.04193 4.17838 3.56108 3.88383 4.14875C3.60008 4.71375 3.46633 5.3875 3.27008 6.37L2.49508 10.2425C2.35783 10.9214 2.37109 11.622 2.53393 12.2952C2.69677 12.9684 3.00523 13.5977 3.43758 14.1388V17.57C3.43758 19.8675 3.43758 21.6875 3.62883 23.1112C3.82633 24.5763 4.24133 25.7625 5.17633 26.6987C6.11133 27.6337 7.29758 28.0487 8.76383 28.2463C10.1876 28.4375 12.0076 28.4375 14.3038 28.4375H15.6951C17.9926 28.4375 19.8126 28.4375 21.2363 28.2463C22.7013 28.0487 23.8876 27.6337 24.8238 26.6987C25.7588 25.7625 26.1738 24.5763 26.3713 23.1112C26.5626 21.6863 26.5626 19.8675 26.5626 17.57V14.14C26.9949 13.5987 27.3032 12.9691 27.4659 12.2957C27.6285 11.6223 27.6414 10.9215 27.5038 10.2425L26.7288 6.37C26.5338 5.3875 26.3988 4.71375 26.1163 4.14875C25.8217 3.56095 25.4066 3.04171 24.8982 2.62479C24.3897 2.20786 23.7992 1.90257 23.1651 1.72875C22.5538 1.5625 21.8676 1.5625 20.8651 1.5625H9.13383ZM22.8351 15.9375C23.4713 15.9386 24.1013 15.812 24.6876 15.565V17.5C24.6876 19.8837 24.6851 21.5775 24.5126 22.8625C24.3438 24.1188 24.0263 24.8438 23.4976 25.3725C22.9688 25.9013 22.2438 26.2188 20.9851 26.3875C20.347 26.4667 19.7054 26.5142 19.0626 26.53V23.085C19.0626 22.535 19.0626 22.06 19.0276 21.6725C18.9901 21.26 18.9076 20.8525 18.6851 20.4688C18.4385 20.0411 18.0837 19.6858 17.6563 19.4387C17.2726 19.2175 16.8651 19.135 16.4526 19.0975C16.0651 19.0625 15.5901 19.0625 15.0401 19.0625H14.9588C14.4088 19.0625 13.9351 19.0625 13.5463 19.0975C13.1338 19.135 12.7276 19.2175 12.3438 19.4387C11.916 19.6857 11.5608 20.0409 11.3138 20.4688C11.0926 20.8525 11.0101 21.26 10.9726 21.6712C10.9376 22.0613 10.9376 22.535 10.9376 23.0837V26.53C10.294 26.5143 9.6515 26.4667 9.01258 26.3875C7.75633 26.2188 7.03133 25.9013 6.50258 25.3725C5.97258 24.8438 5.65633 24.1187 5.48758 22.8612C5.31383 21.5775 5.31258 19.8837 5.31258 17.5V15.565C6.31147 15.987 7.42453 16.0552 8.46748 15.7584C9.51042 15.4615 10.4207 14.8173 11.0476 13.9325C11.5017 14.5546 12.0965 15.0606 12.7834 15.409C13.4703 15.7575 14.2298 15.9386 15.0001 15.9375C15.7703 15.9386 16.5299 15.7575 17.2168 15.409C17.9037 15.0606 18.4985 14.5546 18.9526 13.9325C19.3925 14.5525 19.9746 15.0581 20.6501 15.407C21.3256 15.7558 22.0748 15.9377 22.8351 15.9375ZM12.8126 26.56C13.2976 26.5625 13.8176 26.5625 14.3751 26.5625H15.6251C16.1826 26.5625 16.7013 26.5625 17.1876 26.56V23.125C17.1876 22.5238 17.1863 22.135 17.1601 21.8412C17.1351 21.56 17.0913 21.4575 17.0613 21.4062C16.9791 21.2641 16.861 21.1459 16.7188 21.0637C16.6676 21.0338 16.5651 20.9912 16.2838 20.965C15.8565 20.9387 15.4282 20.9295 15.0001 20.9375C14.3988 20.9375 14.0101 20.9375 13.7163 20.965C13.4338 20.99 13.3326 21.0338 13.2813 21.0637C13.1387 21.1458 13.0201 21.2639 12.9376 21.4062C12.9088 21.4562 12.8651 21.56 12.8401 21.8412C12.8138 22.135 12.8126 22.5238 12.8126 23.125V26.56ZM10.8376 3.4375H9.27258C8.08008 3.4375 7.66633 3.44625 7.33133 3.5375C6.95105 3.6418 6.59695 3.8249 6.29202 4.07492C5.98709 4.32494 5.73814 4.63629 5.56133 4.98875C5.40508 5.3 5.31633 5.7025 5.08258 6.8725L4.33508 10.61C4.25542 10.9946 4.25503 11.3913 4.33395 11.776C4.41288 12.1607 4.56945 12.5253 4.79409 12.8474C5.01873 13.1696 5.30672 13.4425 5.64044 13.6495C5.97417 13.8565 6.34662 13.9933 6.73501 14.0514C7.1234 14.1096 7.51957 14.0879 7.89929 13.9877C8.27902 13.8875 8.63431 13.7109 8.94344 13.4687C9.25257 13.2264 9.50904 12.9237 9.69717 12.579C9.8853 12.2343 10.0011 11.8548 10.0376 11.4637L10.1238 10.6062L10.1288 10.5538L10.8376 3.4375ZM11.9888 10.7812L12.7238 3.4375H17.2763L18.0063 10.74C18.0472 11.1578 18.0006 11.5796 17.8694 11.9784C17.7382 12.3772 17.5254 12.7443 17.2444 13.0563C16.9634 13.3683 16.6205 13.6182 16.2376 13.7903C15.8546 13.9623 15.44 14.0527 15.0202 14.0556C14.6003 14.0584 14.1845 13.9738 13.7992 13.807C13.414 13.6402 13.0677 13.395 12.7824 13.0869C12.4972 12.7788 12.2793 12.4147 12.1427 12.0177C12.0061 11.6207 11.9537 11.1996 11.9888 10.7812ZM22.6688 3.5375C22.3338 3.44625 21.9201 3.4375 20.7276 3.4375H19.1601L19.9638 11.4625C20.0015 11.8524 20.1181 12.2306 20.3065 12.5739C20.495 12.9173 20.7514 13.2188 21.0601 13.4599C21.3688 13.701 21.7234 13.8767 22.1022 13.9764C22.481 14.0761 22.8762 14.0977 23.2636 14.0397C23.651 13.9818 24.0225 13.8456 24.3556 13.6395C24.6887 13.4334 24.9763 13.1616 25.201 12.8407C25.4257 12.5198 25.5827 12.1566 25.6625 11.7731C25.7423 11.3896 25.7431 10.9939 25.6651 10.61L24.9188 6.8725C24.6838 5.7025 24.5951 5.3 24.4401 4.98875C24.2631 4.63615 24.014 4.32473 23.7088 4.0747C23.4037 3.82468 23.0493 3.64165 22.6688 3.5375Z" fill="#2F313C"/>
</svg>
