<svg width="30" height="31" viewBox="0 0 30 31" fill="none" xmlns="http://www.w3.org/2000/svg">
<path d="M18.7499 23V23.9375C18.7499 24.9321 18.3548 25.8859 17.6516 26.5891C16.9483 27.2924 15.9945 27.6875 14.9999 27.6875C14.0054 27.6875 13.0515 27.2924 12.3483 26.5891C11.645 25.8859 11.2499 24.9321 11.2499 23.9375V23M25.0593 21.0916C23.5546 19.25 22.4923 18.3125 22.4923 13.2354C22.4923 8.58594 20.1181 6.92949 18.164 6.125C17.9044 6.01836 17.6601 5.77344 17.581 5.50684C17.2382 4.34023 16.2773 3.3125 14.9999 3.3125C13.7226 3.3125 12.7611 4.34082 12.4218 5.50801C12.3427 5.77754 12.0984 6.01836 11.8388 6.125C9.88235 6.93066 7.51047 8.58125 7.51047 13.2354C7.50754 18.3125 6.44524 19.25 4.94055 21.0916C4.31711 21.8545 4.8632 23 5.95363 23H24.0521C25.1366 23 25.6792 21.851 25.0593 21.0916Z" stroke="#2F313C" stroke-width="1.25" stroke-linecap="round" stroke-linejoin="round"/>
</svg>
