<svg width="24" height="24" viewBox="0 0 24 24" fill="none" xmlns="http://www.w3.org/2000/svg">
<path fill-rule="evenodd" clip-rule="evenodd" d="M9.93893 3.25H14.0609C15.9039 3.25 17.3629 3.25 18.5049 3.403C19.6789 3.561 20.6299 3.893 21.3799 4.641C22.4099 5.668 22.6599 7.081 22.7389 8.958V8.982C22.7469 9.146 22.7539 9.313 22.7469 9.454C22.7438 9.65639 22.6928 9.85517 22.5979 10.034C22.5286 10.1537 22.4378 10.2594 22.3299 10.346C22.249 10.4111 22.1642 10.4712 22.0759 10.526C21.9129 10.629 21.6909 10.753 21.4319 10.898L21.4119 10.908C21.2171 11.0161 21.0548 11.1744 20.9418 11.3664C20.8288 11.5584 20.7692 11.7772 20.7692 12C20.7692 12.2228 20.8288 12.4415 20.9418 12.6336C21.0548 12.8256 21.2171 12.9839 21.4119 13.092L21.4319 13.102C21.6919 13.247 21.9119 13.371 22.0759 13.474C22.1609 13.528 22.2499 13.588 22.3299 13.654C22.4039 13.715 22.5149 13.818 22.5979 13.966C22.7179 14.18 22.7409 14.396 22.7479 14.546C22.7539 14.686 22.7469 14.854 22.7399 15.018L22.7389 15.042C22.6589 16.918 22.4089 18.332 21.3799 19.359C20.6299 20.107 19.6799 20.439 18.5049 20.597C17.3629 20.75 15.9039 20.75 14.0609 20.75H9.93993C8.09693 20.75 6.63793 20.75 5.49593 20.597C4.32093 20.439 3.37093 20.107 2.62093 19.359C1.59093 18.332 1.34093 16.919 1.26193 15.042V15.018C1.25256 14.8609 1.24956 14.7034 1.25293 14.546C1.25993 14.396 1.28293 14.18 1.40293 13.966C1.47224 13.8463 1.5631 13.7406 1.67093 13.654C1.75185 13.5889 1.83667 13.5288 1.92493 13.474C2.08793 13.371 2.30993 13.247 2.56893 13.102L2.58893 13.092C2.78372 12.9839 2.94605 12.8256 3.05906 12.6336C3.17208 12.4415 3.23168 12.2228 3.23168 12C3.23168 11.7772 3.17208 11.5584 3.05906 11.3664C2.94605 11.1744 2.78372 11.0161 2.58893 10.908L2.56893 10.898C2.30893 10.753 2.08893 10.629 1.92493 10.526C1.83652 10.4715 1.75168 10.4113 1.67093 10.346C1.5631 10.2594 1.47224 10.1537 1.40293 10.034C1.30775 9.85525 1.25634 9.65648 1.25293 9.454C1.24922 9.2886 1.25256 9.12312 1.26293 8.958C1.34093 7.082 1.59093 5.668 2.62093 4.641C3.37093 3.893 4.32093 3.561 5.49593 3.403C6.63693 3.25 8.09493 3.25 9.93893 3.25ZM21.2499 14.726V14.746L21.2409 14.979C21.1629 16.835 20.9099 17.711 20.3209 18.297C19.8969 18.721 19.3149 18.975 18.3059 19.11C17.2759 19.248 15.9169 19.25 14.0059 19.25H9.99593C8.08493 19.25 6.72593 19.248 5.69593 19.11C4.68593 18.975 4.10493 18.721 3.67993 18.297C3.09193 17.711 2.83893 16.835 2.75993 14.979C2.75655 14.8947 2.75389 14.8104 2.75193 14.726C2.87593 14.649 3.05493 14.549 3.31993 14.401C3.74748 14.1626 4.10363 13.8144 4.35155 13.3923C4.59948 12.9702 4.7302 12.4895 4.7302 12C4.7302 11.5105 4.59948 11.0298 4.35155 10.6077C4.10363 10.1856 3.74748 9.83739 3.31993 9.599C3.12856 9.49427 2.93919 9.38591 2.75193 9.274V9.254L2.76093 9.021C2.83893 7.165 3.09193 6.289 3.68093 5.703C4.10493 5.279 4.68593 5.025 5.69593 4.89C6.72593 4.752 8.08493 4.75 9.99593 4.75H14.0059C15.9169 4.75 17.2759 4.752 18.3059 4.89C19.3159 5.025 19.8969 5.279 20.3219 5.703C20.9089 6.289 21.1629 7.165 21.2409 9.021L21.2499 9.254V9.274C21.1259 9.351 20.9469 9.451 20.6819 9.599C20.2541 9.83717 19.8977 10.1853 19.6496 10.6075C19.4014 11.0296 19.2706 11.5103 19.2706 12C19.2706 12.4897 19.4014 12.9704 19.6496 13.3925C19.8977 13.8147 20.2541 14.1628 20.6819 14.401C20.9459 14.549 21.1259 14.649 21.2499 14.726ZM15.5299 8.47C15.6704 8.61062 15.7493 8.80125 15.7493 9C15.7493 9.19875 15.6704 9.38937 15.5299 9.53L9.52993 15.53C9.38775 15.6625 9.19971 15.7346 9.00541 15.7312C8.8111 15.7277 8.62572 15.649 8.48831 15.5116C8.35089 15.3742 8.27218 15.1888 8.26875 14.9945C8.26532 14.8002 8.33745 14.6122 8.46993 14.47L14.4699 8.47C14.6106 8.32955 14.8012 8.25066 14.9999 8.25066C15.1987 8.25066 15.3893 8.32955 15.5299 8.47Z" fill="#2F313C"/>
<path d="M15.4998 14.5C15.4998 14.7652 15.3944 15.0196 15.2069 15.2071C15.0193 15.3946 14.765 15.5 14.4998 15.5C14.2345 15.5 13.9802 15.3946 13.7926 15.2071C13.6051 15.0196 13.4998 14.7652 13.4998 14.5C13.4998 14.2348 13.6051 13.9804 13.7926 13.7929C13.9802 13.6054 14.2345 13.5 14.4998 13.5C14.765 13.5 15.0193 13.6054 15.2069 13.7929C15.3944 13.9804 15.4998 14.2348 15.4998 14.5ZM10.4998 9.5C10.4998 9.76522 10.3944 10.0196 10.2069 10.2071C10.0193 10.3946 9.76497 10.5 9.49976 10.5C9.23454 10.5 8.98019 10.3946 8.79265 10.2071C8.60511 10.0196 8.49976 9.76522 8.49976 9.5C8.49976 9.23478 8.60511 8.98043 8.79265 8.79289C8.98019 8.60536 9.23454 8.5 9.49976 8.5C9.76497 8.5 10.0193 8.60536 10.2069 8.79289C10.3944 8.98043 10.4998 9.23478 10.4998 9.5Z" fill="#2F313C"/>
</svg>
