<svg width="25" height="24" viewBox="0 0 25 24" fill="none" xmlns="http://www.w3.org/2000/svg">
<g clip-path="url(#clip0_3928_48434)">
<path d="M1.5 4V10H7.5" stroke="#121314" stroke-width="2" stroke-linecap="round" stroke-linejoin="round"/>
<path d="M23.5 20V14H17.5" stroke="#121314" stroke-width="2" stroke-linecap="round" stroke-linejoin="round"/>
<path d="M20.99 8.99959C20.4828 7.56637 19.6209 6.28499 18.4845 5.27501C17.3482 4.26502 15.9745 3.55935 14.4917 3.22385C13.0089 2.88834 11.4652 2.93393 10.0048 3.35636C8.54437 3.77879 7.21475 4.5643 6.14 5.63959L1.5 9.99959M23.5 13.9996L18.86 18.3596C17.7853 19.4349 16.4556 20.2204 14.9952 20.6428C13.5348 21.0652 11.9911 21.1108 10.5083 20.7753C9.02547 20.4398 7.6518 19.7342 6.51547 18.7242C5.37913 17.7142 4.51717 16.4328 4.01 14.9996" stroke="#121314" stroke-width="2" stroke-linecap="round" stroke-linejoin="round"/>
</g>
<defs>
<clipPath id="clip0_3928_48434">
<rect width="24" height="24" fill="white" transform="translate(0.5)"/>
</clipPath>
</defs>
</svg>
