<svg width="25" height="24" viewBox="0 0 25 24" fill="none" xmlns="http://www.w3.org/2000/svg">
<path d="M5.75 3.5C5.28587 3.5 4.84075 3.68437 4.51256 4.01256C4.18437 4.34075 4 4.78587 4 5.25V8.25C4 8.44891 3.92098 8.63968 3.78033 8.78033C3.63968 8.92098 3.44891 9 3.25 9C3.05109 9 2.86032 8.92098 2.71967 8.78033C2.57902 8.63968 2.5 8.44891 2.5 8.25V5.25C2.5 4.38805 2.84241 3.5614 3.4519 2.9519C4.0614 2.34241 4.88805 2 5.75 2H8.75C8.94891 2 9.13968 2.07902 9.28033 2.21967C9.42098 2.36032 9.5 2.55109 9.5 2.75C9.5 2.94891 9.42098 3.13968 9.28033 3.28033C9.13968 3.42098 8.94891 3.5 8.75 3.5H5.75ZM5.75 20.5C5.28587 20.5 4.84075 20.3156 4.51256 19.9874C4.18437 19.6592 4 19.2141 4 18.75V15.75C4 15.5511 3.92098 15.3603 3.78033 15.2197C3.63968 15.079 3.44891 15 3.25 15C3.05109 15 2.86032 15.079 2.71967 15.2197C2.57902 15.3603 2.5 15.5511 2.5 15.75V18.75C2.5 19.1768 2.58406 19.5994 2.74739 19.9937C2.91072 20.388 3.15011 20.7463 3.4519 21.0481C3.75369 21.3499 4.11197 21.5893 4.50628 21.7526C4.90059 21.9159 5.3232 22 5.75 22H8.75C8.94891 22 9.13968 21.921 9.28033 21.7803C9.42098 21.6397 9.5 21.4489 9.5 21.25C9.5 21.0511 9.42098 20.8603 9.28033 20.7197C9.13968 20.579 8.94891 20.5 8.75 20.5H5.75ZM21 5.25C21 4.78587 20.8156 4.34075 20.4874 4.01256C20.1592 3.68437 19.7141 3.5 19.25 3.5H16.25C16.0511 3.5 15.8603 3.42098 15.7197 3.28033C15.579 3.13968 15.5 2.94891 15.5 2.75C15.5 2.55109 15.579 2.36032 15.7197 2.21967C15.8603 2.07902 16.0511 2 16.25 2H19.25C19.6768 2 20.0994 2.08406 20.4937 2.24739C20.888 2.41072 21.2463 2.65011 21.5481 2.9519C21.8499 3.25369 22.0893 3.61197 22.2526 4.00628C22.4159 4.40059 22.5 4.8232 22.5 5.25V8.25C22.5 8.44891 22.421 8.63968 22.2803 8.78033C22.1397 8.92098 21.9489 9 21.75 9C21.5511 9 21.3603 8.92098 21.2197 8.78033C21.079 8.63968 21 8.44891 21 8.25V5.25ZM19.25 20.5C19.7141 20.5 20.1592 20.3156 20.4874 19.9874C20.8156 19.6592 21 19.2141 21 18.75V15.75C21 15.5511 21.079 15.3603 21.2197 15.2197C21.3603 15.079 21.5511 15 21.75 15C21.9489 15 22.1397 15.079 22.2803 15.2197C22.421 15.3603 22.5 15.5511 22.5 15.75V18.75C22.5 19.1768 22.4159 19.5994 22.2526 19.9937C22.0893 20.388 21.8499 20.7463 21.5481 21.0481C21.2463 21.3499 20.888 21.5893 20.4937 21.7526C20.0994 21.9159 19.6768 22 19.25 22H16.25C16.0511 22 15.8603 21.921 15.7197 21.7803C15.579 21.6397 15.5 21.4489 15.5 21.25C15.5 21.0511 15.579 20.8603 15.7197 20.7197C15.8603 20.579 16.0511 20.5 16.25 20.5H19.25ZM13.5 12C13.5 12.2652 13.3946 12.5196 13.2071 12.7071C13.0196 12.8946 12.7652 13 12.5 13C12.2348 13 11.9804 12.8946 11.7929 12.7071C11.6054 12.5196 11.5 12.2652 11.5 12C11.5 11.7348 11.6054 11.4804 11.7929 11.2929C11.9804 11.1054 12.2348 11 12.5 11C12.7652 11 13.0196 11.1054 13.2071 11.2929C13.3946 11.4804 13.5 11.7348 13.5 12ZM10.23 7.678C10.3359 7.47302 10.4963 7.30124 10.6936 7.18161C10.8908 7.06198 11.1173 6.99913 11.348 7H13.652C14.125 7 14.558 7.263 14.77 7.678L15.258 9H15.833C16.753 9 17.5 9.596 17.5 10.5V14.364C17.5 15.267 16.754 16 15.833 16H9.167C8.247 16 7.5 15.267 7.5 14.364V10.5C7.5 9.596 8.246 9 9.167 9H9.742L10.23 7.678ZM10.5 12C10.5 12.5304 10.7107 13.0391 11.0858 13.4142C11.4609 13.7893 11.9696 14 12.5 14C13.0304 14 13.5391 13.7893 13.9142 13.4142C14.2893 13.0391 14.5 12.5304 14.5 12C14.5 11.4696 14.2893 10.9609 13.9142 10.5858C13.5391 10.2107 13.0304 10 12.5 10C11.9696 10 11.4609 10.2107 11.0858 10.5858C10.7107 10.9609 10.5 11.4696 10.5 12Z" fill="#2F313C"/>
</svg>
